<svg width="186" height="97" viewBox="0 0 186 97" fill="none" xmlns="http://www.w3.org/2000/svg">
<g clip-path="url(#clip0_271_54)">
<path d="M11.32 68.56C7.98667 68.56 5.33333 67.6 3.36 65.68C1.38667 63.7333 0.4 60.9067 0.4 57.2V50.8C0.4 47.0933 1.38667 44.28 3.36 42.36C5.33333 40.4133 7.98667 39.44 11.32 39.44C14.6267 39.44 17.16 40.36 18.92 42.2C20.7067 44.04 21.6 46.56 21.6 49.76V49.96H18.28V49.64C18.28 47.5333 17.7067 45.8133 16.56 44.48C15.44 43.12 13.6933 42.44 11.32 42.44C8.94667 42.44 7.09333 43.1733 5.76 44.64C4.42667 46.08 3.76 48.1067 3.76 50.72V57.28C3.76 59.8933 4.42667 61.9333 5.76 63.4C7.09333 64.84 8.94667 65.56 11.32 65.56C13.6933 65.56 15.44 64.8933 16.56 63.56C17.7067 62.2 18.28 60.4667 18.28 58.36V57.72H21.6V58.24C21.6 61.44 20.7067 63.96 18.92 65.8C17.16 67.64 14.6267 68.56 11.32 68.56ZM36.0241 68.56C34.0507 68.56 32.3041 68.1467 30.7841 67.32C29.2907 66.4933 28.1174 65.3333 27.2641 63.84C26.4374 62.32 26.0241 60.5333 26.0241 58.48V57.96C26.0241 55.9333 26.4374 54.16 27.2641 52.64C28.1174 51.12 29.2907 49.9467 30.7841 49.12C32.3041 48.2933 34.0507 47.88 36.0241 47.88C37.9974 47.88 39.7307 48.2933 41.2241 49.12C42.7441 49.9467 43.9174 51.12 44.7441 52.64C45.5974 54.16 46.0241 55.9333 46.0241 57.96V58.48C46.0241 60.5333 45.5974 62.32 44.7441 63.84C43.9174 65.3333 42.7441 66.4933 41.2241 67.32C39.7307 68.1467 37.9974 68.56 36.0241 68.56ZM36.0241 65.72C38.1041 65.72 39.7574 65.0667 40.9841 63.76C42.2374 62.4267 42.8641 60.64 42.8641 58.4V58.04C42.8641 55.8 42.2374 54.0267 40.9841 52.72C39.7574 51.3867 38.1041 50.72 36.0241 50.72C33.9707 50.72 32.3174 51.3867 31.0641 52.72C29.8107 54.0267 29.1841 55.8 29.1841 58.04V58.4C29.1841 60.64 29.8107 62.4267 31.0641 63.76C32.3174 65.0667 33.9707 65.72 36.0241 65.72ZM51.7106 68V40H54.8706V68H51.7106ZM61.5153 68V40H64.6753V68H61.5153ZM80.28 68.56C78.3067 68.56 76.5733 68.1467 75.08 67.32C73.5867 66.4667 72.4267 65.28 71.6 63.76C70.7733 62.24 70.36 60.48 70.36 58.48V58C70.36 55.9733 70.7733 54.2 71.6 52.68C72.4267 51.16 73.5733 49.9867 75.04 49.16C76.5067 48.3067 78.1867 47.88 80.08 47.88C81.92 47.88 83.5467 48.28 84.96 49.08C86.3733 49.8533 87.48 50.9733 88.28 52.44C89.08 53.9067 89.48 55.6267 89.48 57.6V59.04H73.52C73.6 61.1467 74.28 62.8 75.56 64C76.84 65.1733 78.44 65.76 80.36 65.76C82.04 65.76 83.3333 65.3733 84.24 64.6C85.1467 63.8267 85.84 62.9067 86.32 61.84L89.04 63.16C88.64 63.9867 88.08 64.8133 87.36 65.64C86.6667 66.4667 85.7467 67.16 84.6 67.72C83.48 68.28 82.04 68.56 80.28 68.56ZM73.56 56.44H86.28C86.1733 54.6267 85.5467 53.2133 84.4 52.2C83.28 51.1867 81.84 50.68 80.08 50.68C78.2933 50.68 76.8267 51.1867 75.68 52.2C74.5333 53.2133 73.8267 54.6267 73.56 56.44ZM103.992 68.56C102.099 68.56 100.392 68.16 98.8719 67.36C97.3785 66.5333 96.1919 65.36 95.3119 63.84C94.4585 62.32 94.0319 60.52 94.0319 58.44V58C94.0319 55.8933 94.4585 54.0933 95.3119 52.6C96.1919 51.08 97.3785 49.92 98.8719 49.12C100.392 48.2933 102.099 47.88 103.992 47.88C105.859 47.88 107.445 48.2267 108.752 48.92C110.085 49.6133 111.125 50.5333 111.872 51.68C112.645 52.8267 113.139 54.0533 113.352 55.36L110.272 56C110.139 55.04 109.819 54.16 109.312 53.36C108.832 52.56 108.152 51.92 107.272 51.44C106.392 50.96 105.312 50.72 104.032 50.72C102.725 50.72 101.552 51.0133 100.512 51.6C99.4985 52.1867 98.6852 53.0267 98.0719 54.12C97.4852 55.2133 97.1919 56.52 97.1919 58.04V58.4C97.1919 59.92 97.4852 61.2267 98.0719 62.32C98.6852 63.4133 99.4985 64.2533 100.512 64.84C101.552 65.4267 102.725 65.72 104.032 65.72C105.979 65.72 107.459 65.2133 108.472 64.2C109.512 63.1867 110.152 61.9333 110.392 60.44L113.512 61.12C113.219 62.4 112.685 63.6133 111.912 64.76C111.139 65.9067 110.085 66.8267 108.752 67.52C107.445 68.2133 105.859 68.56 103.992 68.56ZM125.278 68C124.158 68 123.291 67.6933 122.678 67.08C122.091 66.4667 121.798 65.6267 121.798 64.56V51.2H115.918V48.44H121.798V41.48H124.958V48.44H131.358V51.2H124.958V64.08C124.958 64.88 125.344 65.28 126.118 65.28H130.478V68H125.278ZM136.476 68V48.44H139.636V68H136.476ZM138.076 45.4C137.383 45.4 136.796 45.1733 136.316 44.72C135.863 44.2667 135.636 43.6933 135.636 43C135.636 42.28 135.863 41.6933 136.316 41.24C136.796 40.7867 137.383 40.56 138.076 40.56C138.77 40.56 139.343 40.7867 139.796 41.24C140.25 41.6933 140.476 42.28 140.476 43C140.476 43.6933 140.25 44.2667 139.796 44.72C139.343 45.1733 138.77 45.4 138.076 45.4ZM151.241 68L144.241 48.44H147.601L153.481 65.64H154.041L159.921 48.44H163.281L156.281 68H151.241ZM175.983 68.56C174.01 68.56 172.276 68.1467 170.783 67.32C169.29 66.4667 168.13 65.28 167.303 63.76C166.476 62.24 166.063 60.48 166.063 58.48V58C166.063 55.9733 166.476 54.2 167.303 52.68C168.13 51.16 169.276 49.9867 170.743 49.16C172.21 48.3067 173.89 47.88 175.783 47.88C177.623 47.88 179.25 48.28 180.663 49.08C182.076 49.8533 183.183 50.9733 183.983 52.44C184.783 53.9067 185.183 55.6267 185.183 57.6V59.04H169.223C169.303 61.1467 169.983 62.8 171.263 64C172.543 65.1733 174.143 65.76 176.063 65.76C177.743 65.76 179.036 65.3733 179.943 64.6C180.85 63.8267 181.543 62.9067 182.023 61.84L184.743 63.16C184.343 63.9867 183.783 64.8133 183.063 65.64C182.37 66.4667 181.45 67.16 180.303 67.72C179.183 68.28 177.743 68.56 175.983 68.56ZM169.263 56.44H181.983C181.876 54.6267 181.25 53.2133 180.103 52.2C178.983 51.1867 177.543 50.68 175.783 50.68C173.996 50.68 172.53 51.1867 171.383 52.2C170.236 53.2133 169.53 54.6267 169.263 56.44Z" fill="#2A2A2A"/>
<path d="M-0.12 28V25H3.8V3H-0.12V-1.90735e-06H10.8C14.48 -1.90735e-06 17.32 0.933331 19.32 2.8C21.3467 4.66667 22.36 7.53333 22.36 11.4V16.6C22.36 20.4933 21.3467 23.3733 19.32 25.24C17.32 27.08 14.48 28 10.8 28H-0.12ZM7.16 24.96H10.8C13.52 24.96 15.5733 24.2933 16.96 22.96C18.3467 21.6267 19.04 19.56 19.04 16.76V11.28C19.04 8.42667 18.3467 6.34667 16.96 5.04C15.5733 3.73333 13.52 3.08 10.8 3.08H7.16V24.96ZM36.8034 28.56C34.8301 28.56 33.0968 28.1467 31.6034 27.32C30.1101 26.4667 28.9501 25.28 28.1234 23.76C27.2968 22.24 26.8834 20.48 26.8834 18.48V18C26.8834 15.9733 27.2968 14.2 28.1234 12.68C28.9501 11.16 30.0968 9.98667 31.5634 9.16C33.0301 8.30667 34.7101 7.88 36.6034 7.88C38.4434 7.88 40.0701 8.28 41.4834 9.08C42.8968 9.85333 44.0034 10.9733 44.8034 12.44C45.6034 13.9067 46.0034 15.6267 46.0034 17.6V19.04H30.0434C30.1234 21.1467 30.8034 22.8 32.0834 24C33.3634 25.1733 34.9634 25.76 36.8834 25.76C38.5634 25.76 39.8568 25.3733 40.7634 24.6C41.6701 23.8267 42.3634 22.9067 42.8434 21.84L45.5634 23.16C45.1634 23.9867 44.6034 24.8133 43.8834 25.64C43.1901 26.4667 42.2701 27.16 41.1234 27.72C40.0034 28.28 38.5634 28.56 36.8034 28.56ZM30.0834 16.44H42.8034C42.6968 14.6267 42.0701 13.2133 40.9234 12.2C39.8034 11.1867 38.3634 10.68 36.6034 10.68C34.8168 10.68 33.3501 11.1867 32.2034 12.2C31.0568 13.2133 30.3501 14.6267 30.0834 16.44ZM51.5153 28V8.44H54.5953V11.76H55.1553C55.582 10.8267 56.302 9.98667 57.3153 9.24C58.3553 8.46667 59.8753 8.08 61.8753 8.08C63.342 8.08 64.6486 8.38667 65.7953 9C66.9686 9.61333 67.902 10.52 68.5953 11.72C69.2886 12.92 69.6353 14.4 69.6353 16.16V28H66.4753V16.4C66.4753 14.4533 65.982 13.04 64.9953 12.16C64.0353 11.28 62.7286 10.84 61.0753 10.84C59.182 10.84 57.6353 11.4533 56.4353 12.68C55.262 13.9067 54.6753 15.7333 54.6753 18.16V28H51.5153ZM83.9266 28.56C81.4999 28.56 79.4466 28 77.7666 26.88C76.1132 25.76 75.1132 23.9867 74.7666 21.56L77.7666 20.88C77.9799 22.16 78.3799 23.1733 78.9666 23.92C79.5532 24.64 80.2732 25.16 81.1266 25.48C82.0066 25.7733 82.9399 25.92 83.9266 25.92C85.3932 25.92 86.5532 25.6267 87.4066 25.04C88.2599 24.4533 88.6866 23.6667 88.6866 22.68C88.6866 21.6667 88.2732 20.96 87.4466 20.56C86.6466 20.1333 85.5399 19.7867 84.1266 19.52L82.4866 19.24C81.2332 19.0267 80.0866 18.6933 79.0466 18.24C78.0066 17.7867 77.1799 17.1733 76.5666 16.4C75.9532 15.6267 75.6466 14.6533 75.6466 13.48C75.6466 11.72 76.3266 10.3467 77.6866 9.36C79.0466 8.37333 80.8466 7.88 83.0866 7.88C85.2999 7.88 87.0866 8.38667 88.4466 9.4C89.8332 10.3867 90.7266 11.7867 91.1266 13.6L88.1666 14.36C87.9266 12.9467 87.3532 11.96 86.4466 11.4C85.5399 10.8133 84.4199 10.52 83.0866 10.52C81.7532 10.52 80.6999 10.7733 79.9266 11.28C79.1532 11.76 78.7666 12.48 78.7666 13.44C78.7666 14.3733 79.1266 15.0667 79.8466 15.52C80.5932 15.9467 81.5799 16.2667 82.8066 16.48L84.4466 16.76C85.8332 17 87.0732 17.3333 88.1666 17.76C89.2866 18.16 90.1666 18.7467 90.8066 19.52C91.4732 20.2933 91.8066 21.3067 91.8066 22.56C91.8066 24.48 91.0866 25.96 89.6466 27C88.2332 28.04 86.3266 28.56 83.9266 28.56ZM97.1403 28V8.44H100.3V28H97.1403ZM98.7403 5.4C98.047 5.4 97.4603 5.17333 96.9803 4.72C96.527 4.26667 96.3003 3.69333 96.3003 3C96.3003 2.28 96.527 1.69333 96.9803 1.24C97.4603 0.786665 98.047 0.559998 98.7403 0.559998C99.4336 0.559998 100.007 0.786665 100.46 1.24C100.914 1.69333 101.14 2.28 101.14 3C101.14 3.69333 100.914 4.26667 100.46 4.72C100.007 5.17333 99.4336 5.4 98.7403 5.4ZM114.145 28C113.025 28 112.158 27.6933 111.545 27.08C110.958 26.4667 110.665 25.6267 110.665 24.56V11.2H104.785V8.44H110.665V1.48H113.825V8.44H120.225V11.2H113.825V24.08C113.825 24.88 114.212 25.28 114.985 25.28H119.345V28H114.145ZM127.703 36V33.2H138.903C139.677 33.2 140.063 32.8 140.063 32V24.88H139.503C139.237 25.44 138.823 26 138.263 26.56C137.73 27.0933 137.023 27.5333 136.143 27.88C135.263 28.2 134.157 28.36 132.823 28.36C131.41 28.36 130.103 28.0533 128.903 27.44C127.73 26.8267 126.797 25.92 126.103 24.72C125.437 23.52 125.103 22.0533 125.103 20.32V8.44H128.263V20.08C128.263 22 128.743 23.4 129.703 24.28C130.69 25.16 132.01 25.6 133.663 25.6C135.53 25.6 137.063 24.9867 138.263 23.76C139.463 22.5333 140.063 20.7067 140.063 18.28V8.44H143.223V32.56C143.223 33.6267 142.917 34.4667 142.303 35.08C141.717 35.6933 140.85 36 139.703 36H127.703Z" fill="#2A2A2A"/>
<path d="M51.5 85L50 79L48.5 85L42 83.5L46.5 88L42 92.5L48.5 91L50 97L51.5 91L57.5 92.5L53.5 88L57.5 83.5L51.5 85Z" fill="#ED2124"/>
<path d="M32 85L30.5 79L29 85L22.5 83.5L27 88L22.5 92.5L29 91L30.5 97L32 91L38 92.5L34 88L38 83.5L32 85Z" fill="#ED2124"/>
<path d="M12.5 85L11 79L9.5 85L3 83.5L7.5 88L3 92.5L9.5 91L11 97L12.5 91L18.5 92.5L14.5 88L18.5 83.5L12.5 85Z" fill="#ED2124"/>
<path d="M71 85L69.5 79L68 85L61.5 83.5L66 88L61.5 92.5L68 91L69.5 97L71 91L77 92.5L73 88L77 83.5L71 85Z" fill="#ED2124"/>
</g>
<defs>
<clipPath id="clip0_271_54">
<rect width="186" height="97" fill="white"/>
</clipPath>
</defs>
</svg>
