<svg width="189" height="102" viewBox="0 0 189 102" fill="none" xmlns="http://www.w3.org/2000/svg">
<g clip-path="url(#clip0_267_36)">
<path d="M13.32 70.56C9.98667 70.56 7.33333 69.6 5.36 67.68C3.38667 65.7333 2.4 62.9067 2.4 59.2V52.8C2.4 49.0933 3.38667 46.28 5.36 44.36C7.33333 42.4133 9.98667 41.44 13.32 41.44C16.6267 41.44 19.16 42.36 20.92 44.2C22.7067 46.04 23.6 48.56 23.6 51.76V51.96H20.28V51.64C20.28 49.5333 19.7067 47.8133 18.56 46.48C17.44 45.12 15.6933 44.44 13.32 44.44C10.9467 44.44 9.09333 45.1733 7.76 46.64C6.42667 48.08 5.76 50.1067 5.76 52.72V59.28C5.76 61.8933 6.42667 63.9333 7.76 65.4C9.09333 66.84 10.9467 67.56 13.32 67.56C15.6933 67.56 17.44 66.8933 18.56 65.56C19.7067 64.2 20.28 62.4667 20.28 60.36V59.72H23.6V60.24C23.6 63.44 22.7067 65.96 20.92 67.8C19.16 69.64 16.6267 70.56 13.32 70.56ZM38.0241 70.56C36.0507 70.56 34.3041 70.1467 32.7841 69.32C31.2907 68.4933 30.1174 67.3333 29.2641 65.84C28.4374 64.32 28.0241 62.5333 28.0241 60.48V59.96C28.0241 57.9333 28.4374 56.16 29.2641 54.64C30.1174 53.12 31.2907 51.9467 32.7841 51.12C34.3041 50.2933 36.0507 49.88 38.0241 49.88C39.9974 49.88 41.7307 50.2933 43.2241 51.12C44.7441 51.9467 45.9174 53.12 46.7441 54.64C47.5974 56.16 48.0241 57.9333 48.0241 59.96V60.48C48.0241 62.5333 47.5974 64.32 46.7441 65.84C45.9174 67.3333 44.7441 68.4933 43.2241 69.32C41.7307 70.1467 39.9974 70.56 38.0241 70.56ZM38.0241 67.72C40.1041 67.72 41.7574 67.0667 42.9841 65.76C44.2374 64.4267 44.8641 62.64 44.8641 60.4V60.04C44.8641 57.8 44.2374 56.0267 42.9841 54.72C41.7574 53.3867 40.1041 52.72 38.0241 52.72C35.9707 52.72 34.3174 53.3867 33.0641 54.72C31.8107 56.0267 31.1841 57.8 31.1841 60.04V60.4C31.1841 62.64 31.8107 64.4267 33.0641 65.76C34.3174 67.0667 35.9707 67.72 38.0241 67.72ZM53.7106 70V42H56.8706V70H53.7106ZM63.5153 70V42H66.6753V70H63.5153ZM82.28 70.56C80.3067 70.56 78.5733 70.1467 77.08 69.32C75.5867 68.4667 74.4267 67.28 73.6 65.76C72.7733 64.24 72.36 62.48 72.36 60.48V60C72.36 57.9733 72.7733 56.2 73.6 54.68C74.4267 53.16 75.5733 51.9867 77.04 51.16C78.5067 50.3067 80.1867 49.88 82.08 49.88C83.92 49.88 85.5467 50.28 86.96 51.08C88.3733 51.8533 89.48 52.9733 90.28 54.44C91.08 55.9067 91.48 57.6267 91.48 59.6V61.04H75.52C75.6 63.1467 76.28 64.8 77.56 66C78.84 67.1733 80.44 67.76 82.36 67.76C84.04 67.76 85.3333 67.3733 86.24 66.6C87.1467 65.8267 87.84 64.9067 88.32 63.84L91.04 65.16C90.64 65.9867 90.08 66.8133 89.36 67.64C88.6667 68.4667 87.7467 69.16 86.6 69.72C85.48 70.28 84.04 70.56 82.28 70.56ZM75.56 58.44H88.28C88.1733 56.6267 87.5467 55.2133 86.4 54.2C85.28 53.1867 83.84 52.68 82.08 52.68C80.2933 52.68 78.8267 53.1867 77.68 54.2C76.5333 55.2133 75.8267 56.6267 75.56 58.44ZM105.992 70.56C104.099 70.56 102.392 70.16 100.872 69.36C99.3785 68.5333 98.1919 67.36 97.3119 65.84C96.4585 64.32 96.0319 62.52 96.0319 60.44V60C96.0319 57.8933 96.4585 56.0933 97.3119 54.6C98.1919 53.08 99.3785 51.92 100.872 51.12C102.392 50.2933 104.099 49.88 105.992 49.88C107.859 49.88 109.445 50.2267 110.752 50.92C112.085 51.6133 113.125 52.5333 113.872 53.68C114.645 54.8267 115.139 56.0533 115.352 57.36L112.272 58C112.139 57.04 111.819 56.16 111.312 55.36C110.832 54.56 110.152 53.92 109.272 53.44C108.392 52.96 107.312 52.72 106.032 52.72C104.725 52.72 103.552 53.0133 102.512 53.6C101.499 54.1867 100.685 55.0267 100.072 56.12C99.4852 57.2133 99.1919 58.52 99.1919 60.04V60.4C99.1919 61.92 99.4852 63.2267 100.072 64.32C100.685 65.4133 101.499 66.2533 102.512 66.84C103.552 67.4267 104.725 67.72 106.032 67.72C107.979 67.72 109.459 67.2133 110.472 66.2C111.512 65.1867 112.152 63.9333 112.392 62.44L115.512 63.12C115.219 64.4 114.685 65.6133 113.912 66.76C113.139 67.9067 112.085 68.8267 110.752 69.52C109.445 70.2133 107.859 70.56 105.992 70.56ZM127.278 70C126.158 70 125.291 69.6933 124.678 69.08C124.091 68.4667 123.798 67.6267 123.798 66.56V53.2H117.918V50.44H123.798V43.48H126.958V50.44H133.358V53.2H126.958V66.08C126.958 66.88 127.344 67.28 128.118 67.28H132.478V70H127.278ZM138.476 70V50.44H141.636V70H138.476ZM140.076 47.4C139.383 47.4 138.796 47.1733 138.316 46.72C137.863 46.2667 137.636 45.6933 137.636 45C137.636 44.28 137.863 43.6933 138.316 43.24C138.796 42.7867 139.383 42.56 140.076 42.56C140.77 42.56 141.343 42.7867 141.796 43.24C142.25 43.6933 142.476 44.28 142.476 45C142.476 45.6933 142.25 46.2667 141.796 46.72C141.343 47.1733 140.77 47.4 140.076 47.4ZM153.241 70L146.241 50.44H149.601L155.481 67.64H156.041L161.921 50.44H165.281L158.281 70H153.241ZM177.983 70.56C176.01 70.56 174.276 70.1467 172.783 69.32C171.29 68.4667 170.13 67.28 169.303 65.76C168.476 64.24 168.063 62.48 168.063 60.48V60C168.063 57.9733 168.476 56.2 169.303 54.68C170.13 53.16 171.276 51.9867 172.743 51.16C174.21 50.3067 175.89 49.88 177.783 49.88C179.623 49.88 181.25 50.28 182.663 51.08C184.076 51.8533 185.183 52.9733 185.983 54.44C186.783 55.9067 187.183 57.6267 187.183 59.6V61.04H171.223C171.303 63.1467 171.983 64.8 173.263 66C174.543 67.1733 176.143 67.76 178.063 67.76C179.743 67.76 181.036 67.3733 181.943 66.6C182.85 65.8267 183.543 64.9067 184.023 63.84L186.743 65.16C186.343 65.9867 185.783 66.8133 185.063 67.64C184.37 68.4667 183.45 69.16 182.303 69.72C181.183 70.28 179.743 70.56 177.983 70.56ZM171.263 58.44H183.983C183.876 56.6267 183.25 55.2133 182.103 54.2C180.983 53.1867 179.543 52.68 177.783 52.68C175.996 52.68 174.53 53.1867 173.383 54.2C172.236 55.2133 171.53 56.6267 171.263 58.44Z" fill="white"/>
<path d="M1.88 30V27H5.8V5H1.88V2H12.8C16.48 2 19.32 2.93333 21.32 4.8C23.3467 6.66667 24.36 9.53333 24.36 13.4V18.6C24.36 22.4933 23.3467 25.3733 21.32 27.24C19.32 29.08 16.48 30 12.8 30H1.88ZM9.16 26.96H12.8C15.52 26.96 17.5733 26.2933 18.96 24.96C20.3467 23.6267 21.04 21.56 21.04 18.76V13.28C21.04 10.4267 20.3467 8.34667 18.96 7.04C17.5733 5.73333 15.52 5.08 12.8 5.08H9.16V26.96ZM38.8034 30.56C36.8301 30.56 35.0968 30.1467 33.6034 29.32C32.1101 28.4667 30.9501 27.28 30.1234 25.76C29.2968 24.24 28.8834 22.48 28.8834 20.48V20C28.8834 17.9733 29.2968 16.2 30.1234 14.68C30.9501 13.16 32.0968 11.9867 33.5634 11.16C35.0301 10.3067 36.7101 9.88 38.6034 9.88C40.4434 9.88 42.0701 10.28 43.4834 11.08C44.8968 11.8533 46.0034 12.9733 46.8034 14.44C47.6034 15.9067 48.0034 17.6267 48.0034 19.6V21.04H32.0434C32.1234 23.1467 32.8034 24.8 34.0834 26C35.3634 27.1733 36.9634 27.76 38.8834 27.76C40.5634 27.76 41.8568 27.3733 42.7634 26.6C43.6701 25.8267 44.3634 24.9067 44.8434 23.84L47.5634 25.16C47.1634 25.9867 46.6034 26.8133 45.8834 27.64C45.1901 28.4667 44.2701 29.16 43.1234 29.72C42.0034 30.28 40.5634 30.56 38.8034 30.56ZM32.0834 18.44H44.8034C44.6968 16.6267 44.0701 15.2133 42.9234 14.2C41.8034 13.1867 40.3634 12.68 38.6034 12.68C36.8168 12.68 35.3501 13.1867 34.2034 14.2C33.0568 15.2133 32.3501 16.6267 32.0834 18.44ZM53.5153 30V10.44H56.5953V13.76H57.1553C57.582 12.8267 58.302 11.9867 59.3153 11.24C60.3553 10.4667 61.8753 10.08 63.8753 10.08C65.342 10.08 66.6486 10.3867 67.7953 11C68.9686 11.6133 69.902 12.52 70.5953 13.72C71.2886 14.92 71.6353 16.4 71.6353 18.16V30H68.4753V18.4C68.4753 16.4533 67.982 15.04 66.9953 14.16C66.0353 13.28 64.7286 12.84 63.0753 12.84C61.182 12.84 59.6353 13.4533 58.4353 14.68C57.262 15.9067 56.6753 17.7333 56.6753 20.16V30H53.5153ZM85.9266 30.56C83.4999 30.56 81.4466 30 79.7666 28.88C78.1132 27.76 77.1132 25.9867 76.7666 23.56L79.7666 22.88C79.9799 24.16 80.3799 25.1733 80.9666 25.92C81.5532 26.64 82.2732 27.16 83.1266 27.48C84.0066 27.7733 84.9399 27.92 85.9266 27.92C87.3932 27.92 88.5532 27.6267 89.4066 27.04C90.2599 26.4533 90.6866 25.6667 90.6866 24.68C90.6866 23.6667 90.2732 22.96 89.4466 22.56C88.6466 22.1333 87.5399 21.7867 86.1266 21.52L84.4866 21.24C83.2332 21.0267 82.0866 20.6933 81.0466 20.24C80.0066 19.7867 79.1799 19.1733 78.5666 18.4C77.9532 17.6267 77.6466 16.6533 77.6466 15.48C77.6466 13.72 78.3266 12.3467 79.6866 11.36C81.0466 10.3733 82.8466 9.88 85.0866 9.88C87.2999 9.88 89.0866 10.3867 90.4466 11.4C91.8332 12.3867 92.7266 13.7867 93.1266 15.6L90.1666 16.36C89.9266 14.9467 89.3532 13.96 88.4466 13.4C87.5399 12.8133 86.4199 12.52 85.0866 12.52C83.7532 12.52 82.6999 12.7733 81.9266 13.28C81.1532 13.76 80.7666 14.48 80.7666 15.44C80.7666 16.3733 81.1266 17.0667 81.8466 17.52C82.5932 17.9467 83.5799 18.2667 84.8066 18.48L86.4466 18.76C87.8332 19 89.0732 19.3333 90.1666 19.76C91.2866 20.16 92.1666 20.7467 92.8066 21.52C93.4732 22.2933 93.8066 23.3067 93.8066 24.56C93.8066 26.48 93.0866 27.96 91.6466 29C90.2332 30.04 88.3266 30.56 85.9266 30.56ZM99.1403 30V10.44H102.3V30H99.1403ZM100.74 7.4C100.047 7.4 99.4603 7.17333 98.9803 6.72C98.527 6.26667 98.3003 5.69333 98.3003 5C98.3003 4.28 98.527 3.69333 98.9803 3.24C99.4603 2.78666 100.047 2.56 100.74 2.56C101.434 2.56 102.007 2.78666 102.46 3.24C102.914 3.69333 103.14 4.28 103.14 5C103.14 5.69333 102.914 6.26667 102.46 6.72C102.007 7.17333 101.434 7.4 100.74 7.4ZM116.145 30C115.025 30 114.158 29.6933 113.545 29.08C112.958 28.4667 112.665 27.6267 112.665 26.56V13.2H106.785V10.44H112.665V3.48H115.825V10.44H122.225V13.2H115.825V26.08C115.825 26.88 116.212 27.28 116.985 27.28H121.345V30H116.145ZM129.703 38V35.2H140.903C141.677 35.2 142.063 34.8 142.063 34V26.88H141.503C141.237 27.44 140.823 28 140.263 28.56C139.73 29.0933 139.023 29.5333 138.143 29.88C137.263 30.2 136.157 30.36 134.823 30.36C133.41 30.36 132.103 30.0533 130.903 29.44C129.73 28.8267 128.797 27.92 128.103 26.72C127.437 25.52 127.103 24.0533 127.103 22.32V10.44H130.263V22.08C130.263 24 130.743 25.4 131.703 26.28C132.69 27.16 134.01 27.6 135.663 27.6C137.53 27.6 139.063 26.9867 140.263 25.76C141.463 24.5333 142.063 22.7067 142.063 20.28V10.44H145.223V34.56C145.223 35.6267 144.917 36.4667 144.303 37.08C143.717 37.6933 142.85 38 141.703 38H129.703Z" fill="white"/>
<path d="M53.5 87L52 81L50.5 87L44 85.5L48.5 90L44 94.5L50.5 93L52 99L53.5 93L59.5 94.5L55.5 90L59.5 85.5L53.5 87Z" fill="#ED2124"/>
<path d="M34 87L32.5 81L31 87L24.5 85.5L29 90L24.5 94.5L31 93L32.5 99L34 93L40 94.5L36 90L40 85.5L34 87Z" fill="#ED2124"/>
<path d="M14.5 87L13 81L11.5 87L5 85.5L9.5 90L5 94.5L11.5 93L13 99L14.5 93L20.5 94.5L16.5 90L20.5 85.5L14.5 87Z" fill="#ED2124"/>
<path d="M73 87L71.5 81L70 87L63.5 85.5L68 90L63.5 94.5L70 93L71.5 99L73 93L79 94.5L75 90L79 85.5L73 87Z" fill="#ED2124"/>
</g>
<defs>
<clipPath id="clip0_267_36">
<rect width="189" height="102" fill="white"/>
</clipPath>
</defs>
</svg>
